<?xml version="1.0" encoding="utf-8"?>
<!-- Generator: Adobe Illustrator 17.0.0, SVG Export Plug-In . SVG Version: 6.00 Build 0)  -->
<!DOCTYPE svg PUBLIC "-//W3C//DTD SVG 1.1//EN" "http://www.w3.org/Graphics/SVG/1.1/DTD/svg11.dtd">
<svg version="1.1" id="Layer_1" xmlns="http://www.w3.org/2000/svg" xmlns:xlink="http://www.w3.org/1999/xlink" x="0px" y="0px"
	 width="500px" height="500px" viewBox="0 0 500 500" enable-background="new 0 0 500 500" xml:space="preserve">
<g>
	<defs>
		<rect id="SVGID_1_" width="500" height="500"/>
	</defs>
	<clipPath id="SVGID_2_">
		<use xlink:href="#SVGID_1_"  overflow="visible"/>
	</clipPath>
	<line clip-path="url(#SVGID_2_)" fill="none" stroke="#EFEFEF" stroke-miterlimit="10" x1="0" y1="500" x2="500" y2="0"/>
	<line clip-path="url(#SVGID_2_)" fill="none" stroke="#EFEFEF" stroke-miterlimit="10" x1="-10" y1="500" x2="490" y2="0"/>
	<line clip-path="url(#SVGID_2_)" fill="none" stroke="#EFEFEF" stroke-miterlimit="10" x1="-20" y1="500" x2="480" y2="0"/>
	<line clip-path="url(#SVGID_2_)" fill="none" stroke="#EFEFEF" stroke-miterlimit="10" x1="-30" y1="500" x2="470" y2="0"/>
	<line clip-path="url(#SVGID_2_)" fill="none" stroke="#EFEFEF" stroke-miterlimit="10" x1="-40" y1="500" x2="460" y2="0"/>
	<line clip-path="url(#SVGID_2_)" fill="none" stroke="#EFEFEF" stroke-miterlimit="10" x1="-50" y1="500" x2="450" y2="0"/>
	<line clip-path="url(#SVGID_2_)" fill="none" stroke="#EFEFEF" stroke-miterlimit="10" x1="-60" y1="500" x2="440" y2="0"/>
	<line clip-path="url(#SVGID_2_)" fill="none" stroke="#EFEFEF" stroke-miterlimit="10" x1="-70" y1="500" x2="430" y2="0"/>
	<line clip-path="url(#SVGID_2_)" fill="none" stroke="#EFEFEF" stroke-miterlimit="10" x1="-80" y1="500" x2="420" y2="0"/>
	<line clip-path="url(#SVGID_2_)" fill="none" stroke="#EFEFEF" stroke-miterlimit="10" x1="-90" y1="500" x2="410" y2="0"/>
	<line clip-path="url(#SVGID_2_)" fill="none" stroke="#EFEFEF" stroke-miterlimit="10" x1="-100" y1="500" x2="400" y2="0"/>
	<line clip-path="url(#SVGID_2_)" fill="none" stroke="#EFEFEF" stroke-miterlimit="10" x1="-110" y1="500" x2="390" y2="0"/>
	<line clip-path="url(#SVGID_2_)" fill="none" stroke="#EFEFEF" stroke-miterlimit="10" x1="-120" y1="500" x2="380" y2="0"/>
	<line clip-path="url(#SVGID_2_)" fill="none" stroke="#EFEFEF" stroke-miterlimit="10" x1="-130" y1="500" x2="370" y2="0"/>
	<line clip-path="url(#SVGID_2_)" fill="none" stroke="#EFEFEF" stroke-miterlimit="10" x1="-140" y1="500" x2="360" y2="0"/>
	<line clip-path="url(#SVGID_2_)" fill="none" stroke="#EFEFEF" stroke-miterlimit="10" x1="-150" y1="500" x2="350" y2="0"/>
	<line clip-path="url(#SVGID_2_)" fill="none" stroke="#EFEFEF" stroke-miterlimit="10" x1="-160" y1="500" x2="340" y2="0"/>
	<line clip-path="url(#SVGID_2_)" fill="none" stroke="#EFEFEF" stroke-miterlimit="10" x1="-170" y1="500" x2="330" y2="0"/>
	<line clip-path="url(#SVGID_2_)" fill="none" stroke="#EFEFEF" stroke-miterlimit="10" x1="-180" y1="500" x2="320" y2="0"/>
	<line clip-path="url(#SVGID_2_)" fill="none" stroke="#EFEFEF" stroke-miterlimit="10" x1="-190" y1="500" x2="310" y2="0"/>
	<line clip-path="url(#SVGID_2_)" fill="none" stroke="#EFEFEF" stroke-miterlimit="10" x1="-200" y1="500" x2="300" y2="0"/>
	<line clip-path="url(#SVGID_2_)" fill="none" stroke="#EFEFEF" stroke-miterlimit="10" x1="-210" y1="500" x2="290" y2="0"/>
	<line clip-path="url(#SVGID_2_)" fill="none" stroke="#EFEFEF" stroke-miterlimit="10" x1="-220" y1="500" x2="280" y2="0"/>
	<line clip-path="url(#SVGID_2_)" fill="none" stroke="#EFEFEF" stroke-miterlimit="10" x1="-230" y1="500" x2="270" y2="0"/>
	<line clip-path="url(#SVGID_2_)" fill="none" stroke="#EFEFEF" stroke-miterlimit="10" x1="-240" y1="500" x2="260" y2="0"/>
	<line clip-path="url(#SVGID_2_)" fill="none" stroke="#EFEFEF" stroke-miterlimit="10" x1="-250" y1="500" x2="250" y2="0"/>
	<line clip-path="url(#SVGID_2_)" fill="none" stroke="#EFEFEF" stroke-miterlimit="10" x1="-260" y1="500" x2="240" y2="0"/>
	<line clip-path="url(#SVGID_2_)" fill="none" stroke="#EFEFEF" stroke-miterlimit="10" x1="-270" y1="500" x2="230" y2="0"/>
	<line clip-path="url(#SVGID_2_)" fill="none" stroke="#EFEFEF" stroke-miterlimit="10" x1="-280" y1="500" x2="220" y2="0"/>
	<line clip-path="url(#SVGID_2_)" fill="none" stroke="#EFEFEF" stroke-miterlimit="10" x1="-290" y1="500" x2="210" y2="0"/>
	<line clip-path="url(#SVGID_2_)" fill="none" stroke="#EFEFEF" stroke-miterlimit="10" x1="-300" y1="500" x2="200" y2="0"/>
	<line clip-path="url(#SVGID_2_)" fill="none" stroke="#EFEFEF" stroke-miterlimit="10" x1="-310" y1="500" x2="190" y2="0"/>
	<line clip-path="url(#SVGID_2_)" fill="none" stroke="#EFEFEF" stroke-miterlimit="10" x1="-320" y1="500" x2="180" y2="0"/>
	<line clip-path="url(#SVGID_2_)" fill="none" stroke="#EFEFEF" stroke-miterlimit="10" x1="-330" y1="500" x2="170" y2="0"/>
	<line clip-path="url(#SVGID_2_)" fill="none" stroke="#EFEFEF" stroke-miterlimit="10" x1="-340" y1="500" x2="160" y2="0"/>
	<line clip-path="url(#SVGID_2_)" fill="none" stroke="#EFEFEF" stroke-miterlimit="10" x1="-350" y1="500" x2="150" y2="0"/>
	<line clip-path="url(#SVGID_2_)" fill="none" stroke="#EFEFEF" stroke-miterlimit="10" x1="-360" y1="500" x2="140" y2="0"/>
	<line clip-path="url(#SVGID_2_)" fill="none" stroke="#EFEFEF" stroke-miterlimit="10" x1="-370" y1="500" x2="130" y2="0"/>
	<line clip-path="url(#SVGID_2_)" fill="none" stroke="#EFEFEF" stroke-miterlimit="10" x1="-380" y1="500" x2="120" y2="0"/>
	<line clip-path="url(#SVGID_2_)" fill="none" stroke="#EFEFEF" stroke-miterlimit="10" x1="-390" y1="500" x2="110" y2="0"/>
	<line clip-path="url(#SVGID_2_)" fill="none" stroke="#EFEFEF" stroke-miterlimit="10" x1="-400" y1="500" x2="100" y2="0"/>
	<line clip-path="url(#SVGID_2_)" fill="none" stroke="#EFEFEF" stroke-miterlimit="10" x1="-410" y1="500" x2="90" y2="0"/>
	<line clip-path="url(#SVGID_2_)" fill="none" stroke="#EFEFEF" stroke-miterlimit="10" x1="-420" y1="500" x2="80" y2="0"/>
	<line clip-path="url(#SVGID_2_)" fill="none" stroke="#EFEFEF" stroke-miterlimit="10" x1="-430" y1="500" x2="70" y2="0"/>
	<line clip-path="url(#SVGID_2_)" fill="none" stroke="#EFEFEF" stroke-miterlimit="10" x1="-440" y1="500" x2="60" y2="0"/>
	<line clip-path="url(#SVGID_2_)" fill="none" stroke="#EFEFEF" stroke-miterlimit="10" x1="-450" y1="500" x2="50" y2="0"/>
	<line clip-path="url(#SVGID_2_)" fill="none" stroke="#EFEFEF" stroke-miterlimit="10" x1="-460" y1="500" x2="40" y2="0"/>
	<line clip-path="url(#SVGID_2_)" fill="none" stroke="#EFEFEF" stroke-miterlimit="10" x1="-470" y1="500" x2="30" y2="0"/>
	<line clip-path="url(#SVGID_2_)" fill="none" stroke="#EFEFEF" stroke-miterlimit="10" x1="-480" y1="500" x2="20" y2="0"/>
	<line clip-path="url(#SVGID_2_)" fill="none" stroke="#EFEFEF" stroke-miterlimit="10" x1="-490" y1="500" x2="10" y2="0"/>
	<line clip-path="url(#SVGID_2_)" fill="none" stroke="#EFEFEF" stroke-miterlimit="10" x1="-500" y1="500" x2="0" y2="0"/>
	<line clip-path="url(#SVGID_2_)" fill="none" stroke="#EFEFEF" stroke-miterlimit="10" x1="-510" y1="500" x2="-10" y2="0"/>
	<line clip-path="url(#SVGID_2_)" fill="none" stroke="#EFEFEF" stroke-miterlimit="10" x1="10" y1="500" x2="510" y2="0"/>
	<line clip-path="url(#SVGID_2_)" fill="none" stroke="#EFEFEF" stroke-miterlimit="10" x1="20" y1="500" x2="520" y2="0"/>
	<line clip-path="url(#SVGID_2_)" fill="none" stroke="#EFEFEF" stroke-miterlimit="10" x1="30" y1="500" x2="530" y2="0"/>
	<line clip-path="url(#SVGID_2_)" fill="none" stroke="#EFEFEF" stroke-miterlimit="10" x1="40" y1="500" x2="540" y2="0"/>
	<line clip-path="url(#SVGID_2_)" fill="none" stroke="#EFEFEF" stroke-miterlimit="10" x1="50" y1="500" x2="550" y2="0"/>
	<line clip-path="url(#SVGID_2_)" fill="none" stroke="#EFEFEF" stroke-miterlimit="10" x1="60" y1="500" x2="560" y2="0"/>
	<line clip-path="url(#SVGID_2_)" fill="none" stroke="#EFEFEF" stroke-miterlimit="10" x1="70" y1="500" x2="570" y2="0"/>
	<line clip-path="url(#SVGID_2_)" fill="none" stroke="#EFEFEF" stroke-miterlimit="10" x1="80" y1="500" x2="580" y2="0"/>
	<line clip-path="url(#SVGID_2_)" fill="none" stroke="#EFEFEF" stroke-miterlimit="10" x1="90" y1="500" x2="590" y2="0"/>
	<line clip-path="url(#SVGID_2_)" fill="none" stroke="#EFEFEF" stroke-miterlimit="10" x1="100" y1="500" x2="600" y2="0"/>
	<line clip-path="url(#SVGID_2_)" fill="none" stroke="#EFEFEF" stroke-miterlimit="10" x1="110" y1="500" x2="610" y2="0"/>
	<line clip-path="url(#SVGID_2_)" fill="none" stroke="#EFEFEF" stroke-miterlimit="10" x1="120" y1="500" x2="620" y2="0"/>
	<line clip-path="url(#SVGID_2_)" fill="none" stroke="#EFEFEF" stroke-miterlimit="10" x1="130" y1="500" x2="630" y2="0"/>
	<line clip-path="url(#SVGID_2_)" fill="none" stroke="#EFEFEF" stroke-miterlimit="10" x1="140" y1="500" x2="640" y2="0"/>
	<line clip-path="url(#SVGID_2_)" fill="none" stroke="#EFEFEF" stroke-miterlimit="10" x1="150" y1="500" x2="650" y2="0"/>
	<line clip-path="url(#SVGID_2_)" fill="none" stroke="#EFEFEF" stroke-miterlimit="10" x1="160" y1="500" x2="660" y2="0"/>
	<line clip-path="url(#SVGID_2_)" fill="none" stroke="#EFEFEF" stroke-miterlimit="10" x1="170" y1="500" x2="670" y2="0"/>
	<line clip-path="url(#SVGID_2_)" fill="none" stroke="#EFEFEF" stroke-miterlimit="10" x1="180" y1="500" x2="680" y2="0"/>
	<line clip-path="url(#SVGID_2_)" fill="none" stroke="#EFEFEF" stroke-miterlimit="10" x1="190" y1="500" x2="690" y2="0"/>
	<line clip-path="url(#SVGID_2_)" fill="none" stroke="#EFEFEF" stroke-miterlimit="10" x1="200" y1="500" x2="700" y2="0"/>
	<line clip-path="url(#SVGID_2_)" fill="none" stroke="#EFEFEF" stroke-miterlimit="10" x1="210" y1="500" x2="710" y2="0"/>
	<line clip-path="url(#SVGID_2_)" fill="none" stroke="#EFEFEF" stroke-miterlimit="10" x1="220" y1="500" x2="720" y2="0"/>
	<line clip-path="url(#SVGID_2_)" fill="none" stroke="#EFEFEF" stroke-miterlimit="10" x1="230" y1="500" x2="730" y2="0"/>
	<line clip-path="url(#SVGID_2_)" fill="none" stroke="#EFEFEF" stroke-miterlimit="10" x1="240" y1="500" x2="740" y2="0"/>
	<line clip-path="url(#SVGID_2_)" fill="none" stroke="#EFEFEF" stroke-miterlimit="10" x1="250" y1="500" x2="750" y2="0"/>
	<line clip-path="url(#SVGID_2_)" fill="none" stroke="#EFEFEF" stroke-miterlimit="10" x1="260" y1="500" x2="760" y2="0"/>
	<line clip-path="url(#SVGID_2_)" fill="none" stroke="#EFEFEF" stroke-miterlimit="10" x1="270" y1="500" x2="770" y2="0"/>
	<line clip-path="url(#SVGID_2_)" fill="none" stroke="#EFEFEF" stroke-miterlimit="10" x1="280" y1="500" x2="780" y2="0"/>
	<line clip-path="url(#SVGID_2_)" fill="none" stroke="#EFEFEF" stroke-miterlimit="10" x1="290" y1="500" x2="790" y2="0"/>
	<line clip-path="url(#SVGID_2_)" fill="none" stroke="#EFEFEF" stroke-miterlimit="10" x1="300" y1="500" x2="800" y2="0"/>
	<line clip-path="url(#SVGID_2_)" fill="none" stroke="#EFEFEF" stroke-miterlimit="10" x1="310" y1="500" x2="810" y2="0"/>
	<line clip-path="url(#SVGID_2_)" fill="none" stroke="#EFEFEF" stroke-miterlimit="10" x1="320" y1="500" x2="820" y2="0"/>
	<line clip-path="url(#SVGID_2_)" fill="none" stroke="#EFEFEF" stroke-miterlimit="10" x1="330" y1="500" x2="830" y2="0"/>
	<line clip-path="url(#SVGID_2_)" fill="none" stroke="#EFEFEF" stroke-miterlimit="10" x1="340" y1="500" x2="840" y2="0"/>
	<line clip-path="url(#SVGID_2_)" fill="none" stroke="#EFEFEF" stroke-miterlimit="10" x1="350" y1="500" x2="850" y2="0"/>
	<line clip-path="url(#SVGID_2_)" fill="none" stroke="#EFEFEF" stroke-miterlimit="10" x1="360" y1="500" x2="860" y2="0"/>
	<line clip-path="url(#SVGID_2_)" fill="none" stroke="#EFEFEF" stroke-miterlimit="10" x1="370" y1="500" x2="870" y2="0"/>
	<line clip-path="url(#SVGID_2_)" fill="none" stroke="#EFEFEF" stroke-miterlimit="10" x1="380" y1="500" x2="880" y2="0"/>
	<line clip-path="url(#SVGID_2_)" fill="none" stroke="#EFEFEF" stroke-miterlimit="10" x1="390" y1="500" x2="890" y2="0"/>
	<line clip-path="url(#SVGID_2_)" fill="none" stroke="#EFEFEF" stroke-miterlimit="10" x1="400" y1="500" x2="900" y2="0"/>
	<line clip-path="url(#SVGID_2_)" fill="none" stroke="#EFEFEF" stroke-miterlimit="10" x1="410" y1="500" x2="910" y2="0"/>
	<line clip-path="url(#SVGID_2_)" fill="none" stroke="#EFEFEF" stroke-miterlimit="10" x1="420" y1="500" x2="920" y2="0"/>
	<line clip-path="url(#SVGID_2_)" fill="none" stroke="#EFEFEF" stroke-miterlimit="10" x1="430" y1="500" x2="930" y2="0"/>
	<line clip-path="url(#SVGID_2_)" fill="none" stroke="#EFEFEF" stroke-miterlimit="10" x1="440" y1="500" x2="940" y2="0"/>
	<line clip-path="url(#SVGID_2_)" fill="none" stroke="#EFEFEF" stroke-miterlimit="10" x1="450" y1="500" x2="950" y2="0"/>
	<line clip-path="url(#SVGID_2_)" fill="none" stroke="#EFEFEF" stroke-miterlimit="10" x1="460" y1="500" x2="960" y2="0"/>
	<line clip-path="url(#SVGID_2_)" fill="none" stroke="#EFEFEF" stroke-miterlimit="10" x1="470" y1="500" x2="970" y2="0"/>
	<line clip-path="url(#SVGID_2_)" fill="none" stroke="#EFEFEF" stroke-miterlimit="10" x1="480" y1="500" x2="980" y2="0"/>
	<line clip-path="url(#SVGID_2_)" fill="none" stroke="#EFEFEF" stroke-miterlimit="10" x1="490" y1="500" x2="990" y2="0"/>
	<line clip-path="url(#SVGID_2_)" fill="none" stroke="#EFEFEF" stroke-miterlimit="10" x1="500" y1="500" x2="1000" y2="0"/>
</g>
</svg>
