<?xml version="1.0" encoding="utf-8"?>
<!-- Generator: Adobe Illustrator 17.0.0, SVG Export Plug-In . SVG Version: 6.00 Build 0)  -->
<!DOCTYPE svg PUBLIC "-//W3C//DTD SVG 1.1//EN" "http://www.w3.org/Graphics/SVG/1.1/DTD/svg11.dtd">
<svg version="1.1" id="Layer_1" xmlns="http://www.w3.org/2000/svg" xmlns:xlink="http://www.w3.org/1999/xlink" x="0px" y="0px"
	 width="18.397px" height="29.673px" viewBox="0 0 18.397 29.673" enable-background="new 0 0 18.397 29.673" xml:space="preserve">
<g>
	<path fill="none" stroke="#FFFFFF" stroke-miterlimit="10" d="M16.639,3.836c0-0.552-0.448-1-1-1h-4.315
		c0,1.174-0.951,2.125-2.125,2.125c-1.174,0-2.125-0.951-2.125-2.125H2.759c-0.552,0-1,0.448-1,1v22c0,0.552,0.448,1,1,1h4.315
		c0-1.174,0.951-2.125,2.125-2.125c1.174,0,2.125,0.951,2.125,2.125h4.315c0.552,0,1-0.448,1-1V3.836z"/>
	<line fill="none" stroke="#FFFFFF" stroke-miterlimit="10" x1="1.759" y1="14.836" x2="16.639" y2="14.836"/>
	<polyline fill="none" stroke="#FFFFFF" stroke-miterlimit="10" points="7.126,9.846 9.199,7.774 11.271,9.846 	"/>
	<line fill="none" stroke="#FFFFFF" stroke-miterlimit="10" x1="9.199" y1="7.774" x2="9.199" y2="12.514"/>
</g>
</svg>
