<svg xmlns="http://www.w3.org/2000/svg" width="50" height="50" viewBox="-10 -10 50 50" enable-background="new -10 -10 50 50"><path fill="#232323" d="M-10-10h50v50h-50z"/><path d="M29.526 26.973c-.265-.235-.538-.461-.794-.706-2.985-2.853-5.968-5.709-8.951-8.565l-.197-.206 7.347-5.776-.236-.192c-3.826-2.87-7.653-5.739-11.477-8.611-.146-.11-.241-.149-.412-.02-3.845 2.893-7.695 5.777-11.544 8.664l-.194.159 7.314 5.747c-.27.285-.523.573-.798.838-2.516 2.414-5.036 4.824-7.555 7.236l-1.393 1.333-.162.1v-15.661l.284-.168c4.487-3.365 8.973-6.729 13.458-10.095l.727-.576h.113l.139.134c4.704 3.53 9.409 7.059 14.115 10.586l.215.118c.001 5.22.001 10.44.001 15.661zm-29.052 2.496c.483-.448.971-.889 1.447-1.344 2.85-2.723 5.697-5.448 8.544-8.173l4.382-4.197.157-.143 2.074 1.986 7.15 6.841 5.121 4.901.176.13-.227.054c-1.153.003-2.305.002-3.458.002-8.371 0-16.742 0-25.113-.002l-.253-.055z" fill="#fff"/></svg>