<svg xmlns="http://www.w3.org/2000/svg" width="50" height="50" viewBox="-10 -10 50 50" enable-background="new -10 -10 50 50"><path fill="#232323" d="M-10-10h50v50h-50z"/><path d="M18.839 9.181l-7.77-.004c2.59.212 5.177.244 7.77.004zm7.192 4.872c2.408.043 4.81.133 7.188.563.146.026.301.003.452.003l.002-.173c-2.664-.57-5.381-.601-8.077-.667.099-.726.213-1.408.283-2.094.239-2.34-.129-4.513-1.737-6.358-.144-.165-.153-.482-.158-.729-.017-.923.113-1.867-.036-2.766-.208-1.258-.285-1.465-1.7-1.017-1.065.337-2.043.948-3.068 1.42-.182.084-.416.149-.604.111-2.122-.424-4.253-.41-6.387-.152-.571.069-1.161.392-1.688.297-.531-.096-.983-.589-1.492-.866-.888-.482-1.811-.873-2.844-.926-.292-.015-.452.075-.559.367-.474 1.297-.514 2.615-.217 3.946.07.313.027.531-.179.767-1.193 1.37-1.639 2.984-1.487 4.77.091 1.073.232 2.142.353 3.235-.51.023-1.106.032-1.699.08-1.864.15-3.727.312-5.589.48-.157.014-.308.107-.461.163l.035.128.263-.001c2.365-.185 4.731-.36 7.094-.568.512-.045.764.122.807.599-1.389.137-2.781.243-4.164.418-1.36.172-2.706.433-3.984.966.252.045.488.009.717-.05 2.386-.613 4.811-.944 7.274-.987.159-.003.398.063.469.177 1.116 1.806 2.815 2.735 4.807 3.218.72.175 1.456.287 2.08.407-.327.586-.648 1.186-.993 1.772-.107.182-.247.4-.424.475-1.52.639-3.044.215-4.07-1.075-.39-.491-.796-.976-1.248-1.408-.484-.463-1.104-.585-1.759-.448-.346.072-.402.277-.156.53.087.089.195.159.3.228.786.517 1.336 1.219 1.711 2.082.827 1.903 1.979 2.618 4.065 2.55.449-.015.898-.053 1.401-.083 0 .985-.02 1.943.008 2.9.017.578-.21.998-.654 1.333-.213.16-.439.312-.623.501-.17.175-.193.355.117.444 1.391.399 2.875-.69 2.881-2.113.006-1.369 0-2.738.05-4.105.012-.339.22-.671.338-1.006.148.083.177.124.177.165-.021 1.997-.024 3.994-.085 5.99-.011.364-.256.724-.405 1.081-.089.214-.2.419-.301.628.264.033.527.076.792.093.086.005.178-.055.264-.093 1.024-.455 1.553-1.248 1.575-2.364.035-1.824.055-3.648.082-5.472l.021-.246h.453v.539c.005 1.684-.017 3.368.025 5.051.036 1.436.858 2.399 2.172 2.633.146.026.381-.014.451-.112.073-.102.015-.316-.025-.471-.025-.099-.115-.186-.186-.269-.416-.491-.589-1.06-.587-1.699.007-1.684.001-3.368.004-5.052l.044-.464c.538.435.508.972.521 1.475.032 1.305.041 2.611.05 3.917.005.715.32 1.27.945 1.566.427.203.923.293 1.399.347.245.028.511-.132.768-.207-.161-.178-.294-.396-.487-.526-.644-.434-.919-.992-.896-1.792.042-1.508.014-3.019-.033-4.527-.033-1.077-.374-2.04-1.305-2.701l-.002-.056c.884-.17 1.771-.303 2.639-.514 1.843-.449 3.387-1.329 4.288-3.101.058-.115.304-.196.458-.191 2.582.093 5.146.332 7.648 1.024l.504.112-.115-.25c-2.675-.857-5.453-1.023-8.228-1.183.004-.52.247-.678.737-.669zm-2.875-.1c-.325 2.268-1.814 3.639-4.301 3.877-1.219.117-2.447.131-3.419.18-1.945-.098-3.655.044-5.31-.453-1.92-.576-3.228-1.714-3.483-3.812-.339-2.787 1.604-4.798 4.425-4.568l7.77.004c2.854-.263 4.738 1.841 4.318 4.772zm-13.412-2.125c-.637.651-.635 2.086.004 2.734.414.419 1.017.438 1.349-.042.257-.371.382-.833.597-1.325-.215-.474-.353-.965-.634-1.352-.333-.461-.916-.424-1.316-.015zm9.223.138c-.226.358-.32.8-.479 1.218.149.423.229.833.429 1.174.399.683 1.16.683 1.616.042.471-.662.454-1.795-.035-2.446-.435-.578-1.147-.598-1.531.012z" fill="#fff"/></svg>