<svg xmlns="http://www.w3.org/2000/svg" width="50" height="50" viewBox="-10 -10 50 50" enable-background="new -10 -10 50 50"><path fill="#232323" d="M-10-10h50v50h-50z"/><path d="M10.297 29.599l.009-1.693.017-5.307.009-2.97c.003-1.829.009-3.658.006-5.486-.002-1.252-.015-2.504-.024-3.757l-.011-.358v-.124h6.542l.003.914v1.816l.024.005.073-.103c.379-.568.807-1.093 1.321-1.546.832-.731 1.797-1.189 2.88-1.404.857-.171 1.721-.188 2.588-.098.93.097 1.818.341 2.649.775 1.211.633 2.116 1.572 2.76 2.77.425.79.702 1.633.88 2.51.171.844.247 1.697.246 2.559-.003 3.785-.001 7.57-.001 11.354l-.005.143h-6.512l-.017-.164c-.001-3.486-.001-6.973-.001-10.459 0-.49-.037-.977-.126-1.459-.094-.511-.245-1.003-.503-1.458-.372-.655-.911-1.107-1.639-1.316-.627-.18-1.263-.19-1.898-.041-.725.171-1.32.558-1.799 1.124-.371.439-.657.927-.802 1.488-.1.387-.116.785-.116 1.183 0 3.645 0 7.291-.001 10.936l-.016.164c-2.178.002-4.357.002-6.536.002zm-10.162 0l-.001-.358v-19.336h6.534l.011.078.001.095v19.342l-.008.178-6.537.001zm3.65-29.198l.304.047c.633.087 1.218.298 1.73.688.633.482 1.023 1.122 1.199 1.893.182.798.111 1.574-.255 2.31-.405.814-1.06 1.345-1.91 1.643-.547.192-1.114.25-1.691.225-.593-.024-1.159-.154-1.68-.441-.992-.547-1.554-1.39-1.708-2.51l-.044-.157v-.573l.044-.17c.11-.847.478-1.556 1.136-2.106.548-.459 1.19-.702 1.892-.801l.315-.048h.668z" fill="#fff"/></svg>