<svg xmlns="http://www.w3.org/2000/svg" width="110.467" height="31.5" viewBox="0 0 110.467 31.5"><g fill="#E5244A"><path d="M4.946 23.307c-.877 0-1.67.295-2.38.885-.711.591-1.137 1.314-1.279 2.171v.243l-.035.243c0 .742.254 1.367.763 1.876.509.509 1.155.764 1.936.764.876 0 1.669-.307 2.379-.92.711-.614 1.137-1.349 1.279-2.206l.036-.243v-.243c0-.741-.256-1.354-.764-1.841-.51-.486-1.154-.729-1.935-.729zM26.786 14.832c-.521-.463-1.059-.845-1.615-1.146-.557-.301-1.286-.648-2.185-1.042-1.184-.532-2.048-1.008-2.593-1.424-.544-.417-.816-.961-.816-1.632v-.209l.035-.209c.118-.833.556-1.533 1.314-2.1.758-.567 1.563-.852 2.416-.852.828 0 1.544.186 2.148.557.604.37 1.106.902 1.509 1.597l3.019-3.542c-.639-.857-1.628-1.557-2.966-2.102-1.337-.543-2.622-.816-3.852-.816-1.114 0-2.185.202-3.215.607-1.03.406-1.953.968-2.77 1.685-.817.718-1.498 1.552-2.042 2.5-.545.951-.9 1.969-1.065 3.058-.071.463-.107.914-.107 1.354 0 1.436.414 2.587 1.243 3.455.828.869 2.048 1.65 3.658 2.345.095.023.237.082.426.173 1.16.464 2.047.933 2.664 1.407.615.475.923 1.164.923 2.067l-.035.313v.312c-.166 1.042-.628 1.933-1.385 2.675-.759.741-1.658 1.111-2.7 1.111-1.065 0-1.976-.37-2.734-1.111-.758-.742-1.243-1.644-1.456-2.71l-3.906 3.23c.71 1.598 1.68 2.849 2.911 3.751 1.231.904 2.735 1.355 4.511 1.355 1.349 0 2.605-.221 3.765-.66 1.159-.439 2.189-1.059 3.089-1.858.899-.799 1.639-1.748 2.22-2.848.579-1.1.976-2.298 1.19-3.595.071-.509.106-1.008.106-1.494 0-.948-.154-1.771-.462-2.466-.308-.693-.723-1.272-1.243-1.736zM29.805 20.285c-.095.579-.143 1.146-.143 1.702 0 .943.138 1.804.397 2.592v-5.459c-.101.38-.19.766-.254 1.165zM40.424 11.186c-1.327 0-2.588.22-3.783.659-1.196.44-2.272 1.071-3.232 1.893-.958.823-1.746 1.789-2.361 2.901-.43.775-.756 1.605-.989 2.481v5.459c.345 1.049.912 1.966 1.717 2.739 1.408 1.355 3.321 2.032 5.735 2.032 1.326 0 2.592-.22 3.8-.659 1.208-.441 2.284-1.072 3.232-1.894.947-.821 1.728-1.788 2.345-2.9.614-1.111 1.029-2.315 1.243-3.612.093-.578.142-1.146.142-1.701 0-2.224-.706-4.013-2.114-5.366-1.409-1.356-3.321-2.032-5.735-2.032zm2.663 9.099c-.096.579-.285 1.152-.568 1.719-.284.568-.645 1.077-1.084 1.529-.438.451-.935.816-1.491 1.094-.557.277-1.143.416-1.759.416-1.064 0-1.899-.387-2.503-1.163-.603-.776-.906-1.696-.906-2.761 0-.278.024-.556.071-.834.095-.602.285-1.187.569-1.754s.645-1.081 1.083-1.546c.437-.462.935-.827 1.491-1.093.556-.267 1.142-.4 1.759-.4 1.065 0 1.9.377 2.504 1.129.603.753.905 1.684.905 2.796 0 .277-.024.568-.071.868zM61.518 11.186c-.947 0-1.847.173-2.698.521-.852.347-1.575.88-2.167 1.597h-.072l.25-1.563h-4.973l-2.769 17.053h4.972l1.385-8.439c.094-.719.212-1.348.354-1.893.142-.544.344-1.077.604-1.598.261-.521.628-.949 1.102-1.286.472-.334 1.065-.503 1.775-.503.805 0 1.373.208 1.704.625.332.418.498.985.498 1.703 0 .44-.083 1.145-.248 2.118l-.037.243-1.455 9.03h4.972l1.704-10.419c.119-.787.179-1.505.179-2.154 0-1.574-.397-2.807-1.19-3.699-.794-.891-2.091-1.336-3.89-1.336zM77.891 4.378v-.244c0-.694-.232-1.273-.693-1.736-.462-.463-1.06-.695-1.793-.695-.83 0-1.575.285-2.238.851-.663.568-1.065 1.245-1.207 2.032v.243l-.036.209c0 .694.237 1.273.711 1.737.472.463 1.076.693 1.811.693.828 0 1.574-.277 2.237-.833.662-.555 1.053-1.238 1.172-2.049l.036-.208zM68.515 28.794h4.972l2.769-17.053h-4.971zM84.194 16.811c.959-1.017 2.114-1.528 3.463-1.528.71 0 1.332.14 1.864.417.533.278 1.035.695 1.51 1.251l.746-4.689c-1.066-.717-2.356-1.076-3.872-1.076-1.278 0-2.515.237-3.711.711-1.196.476-2.268 1.129-3.213 1.962-.948.834-1.736 1.807-2.362 2.918-.216.382-.396.775-.56 1.173-.313.761-.542 1.549-.666 2.37-.094.532-.142 1.042-.142 1.528 0 1.042.172 2.02.515 2.935.087.233.185.457.293.674.317.636.721 1.205 1.216 1.705 1.373 1.458 3.197 2.188 5.469 2.188 1.564 0 3.042-.347 4.44-1.042l.781-4.689c-.544.51-1.142.909-1.794 1.199-.651.29-1.308.434-1.97.434-1.207 0-2.155-.37-2.841-1.112-.688-.741-1.03-1.689-1.03-2.847 0-.301.036-.614.107-.938.212-1.343.798-2.524 1.757-3.544zM109.213 18.221v.04l.001-.025-.001-.015zM107.491 13.113c-1.148-1.285-2.894-1.927-5.238-1.927-2.699 0-4.919.862-6.659 2.587-1.741 1.725-2.836 3.942-3.285 6.651-.096.625-.142 1.228-.142 1.806 0 2.153.65 3.878 1.953 5.175 1.302 1.297 3.125 1.945 5.469 1.945 1.847 0 3.552-.469 5.115-1.406 1.562-.938 2.781-2.241 3.657-3.907l-4.475-.73c-.473.718-1.017 1.285-1.633 1.702-.617.416-1.314.624-2.095.624-.971 0-1.681-.317-2.132-.955-.45-.636-.674-1.441-.674-2.413 0-.37.035-.775.106-1.216h11.471l.107-.591c.117-.754.176-1.487.177-2.197v-.04c-.002-2.123-.576-3.827-1.722-5.108zm-9.393 4.914c.284-.948.769-1.759 1.456-2.431.686-.671 1.503-1.008 2.45-1.008.876 0 1.55.331 2.025.99.473.661.71 1.477.71 2.449h-6.641z"/></g><path fill="#9E9E9E" d="M-27.127-60.25h17.25v17.25h-17.25z"/></svg>